PathFileType	4	(X/Y/Z)	Patient4_TMGait_0pt8_01_right_29.trc.trc
DataRate	CameraRate	NumFrames	NumMarkers	Units	OrigDataRate	OrigDataStartFrame	OrigNumFrames
88.050314465409	88.050314465409	4	33	mm	88.050314465409	18	       141
Frame#	Time	Sacral			L.Shoulder			Chest			R.Shoulder			Neck			R.ASIS			L.ASIS			R.Thigh.Superior			R.Thigh.Lateral			R.Thigh.Inferior			R.Patella			L.Thigh.Superior			L.Thigh.Lateral			L.Thigh.Inferior			L.Patella			L.Shank.Superior			L.Shank.Lateral			L.Shank.Inferior			R.Shank.Superior			R.Shank.Lateral			R.Shank.Inferior			R.Heel			R.Midfoot.Superior			R.Midfoot.Lateral			R.Toe			L.Heel			L.Midfoot.Lateral			L.Midfoot.Superior			L.Toe			L.Elbow			L.Wrist			R.Elbow			R.Wrist			
		X1	Y1	Z1	X2	Y2	Z2	X3	Y3	Z3	X4	Y4	Z4	X5	Y5	Z5	X6	Y6	Z6	X7	Y7	Z7	X8	Y8	Z8	X9	Y9	Z9	X10	Y10	Z10	X11	Y11	Z11	X12	Y12	Z12	X13	Y13	Z13	X14	Y14	Z14	X15	Y15	Z15	X16	Y16	Z16	X17	Y17	Z17	X18	Y18	Z18	X19	Y19	Z19	X20	Y20	Z20	X21	Y21	Z21	X22	Y22	Z22	X23	Y23	Z23	X24	Y24	Z24	X25	Y25	Z25	X26	Y26	Z26	X27	Y27	Z27	X28	Y28	Z28	X29	Y29	Z29	X30	Y30	Z30	X31	Y31	Z31	X32	Y32	Z32	X33	Y33	Z33	

18	32.593071428571	844.330067123844	998.781026579136	449.537132222233	1047.718439673225	1432.730292429658	301.360976293053	1124.460726656286	1358.180308314135	474.116120174610	1014.184315401708	1424.921860799956	635.886494226825	1005.342305564300	1487.711500218207	455.364736399039	1057.376029122195	942.991195888218	595.316859426896	1074.354263450625	953.142963629567	319.810781852021	1144.812907153255	780.948814226058	571.415388410810	1110.739117974176	656.004426072295	643.514362991805	1202.951908689607	623.162977788626	566.653894181757	1241.113684746034	535.117215234653	588.738905142149	1069.872466965618	722.425855010832	353.878659823407	954.048132963813	630.733883998308	281.790183663408	1005.789472835848	535.514494133093	352.078345695625	987.457175041890	470.714666192423	361.529057677244	952.764404500467	404.011737449672	351.622842927320	850.195173124251	303.459419386404	298.161238335388	878.340201463281	187.379537072343	372.897633669446	1215.540803031543	444.259335383274	597.029156446391	1150.559563071788	337.578865943450	661.533152944896	1209.851947746365	244.244381185142	610.734454266577	1098.459151307130	66.209853533668	585.371310379313	1266.743567179660	128.421505958749	624.140714384840	1184.404481573225	54.502566317978	655.845284929220	1388.157485274773	81.416585974811	642.886512102406	733.124460810618	40.432076471432	410.585350788642	807.099544242778	36.318027264329	330.844916735211	891.596686102836	95.720627162290	359.203950439746	1019.046832609000	40.698829953405	329.230650586328	1144.711547364081	1116.388338488726	148.927971274791	1389.939008919093	1116.421168993584	219.791837522071	884.448168838611	1096.553529781086	726.475357977703	852.691512309083	838.574878735740	747.030794491167	
19	32.604428571429	845.363059976904	995.964864847262	451.124464831025	1047.079949493974	1430.442941764940	302.701211379293	1124.509142771430	1355.986167485762	475.171085314081	1014.549015488198	1422.576298704834	637.182997247905	1005.060071829063	1485.186063179714	456.671204906479	1059.089107392743	940.151742320000	596.114515082799	1074.918827939810	951.074073987408	320.572355391404	1144.073808101666	775.589687974852	571.544154314742	1108.834725976968	651.471869577962	644.263236132685	1199.703676648988	617.694516099958	566.044070826044	1238.158374169321	531.979635065900	587.586000537879	1067.710560887411	719.791671999204	353.772748681871	950.198389725357	629.621568088380	282.019731760089	1000.728922516637	533.713442859361	352.083640167535	981.577822047027	469.095868127212	361.485670774836	946.239937292180	402.773522217037	351.603157850444	842.699681790031	303.172362352099	298.196820734762	869.957444496647	186.808388267358	372.792955016353	1216.162456390731	441.282172883187	596.962133315288	1156.157420560767	331.732515476455	662.090157543240	1219.505980818412	240.922283269130	611.033248109647	1116.023360207016	57.668246713075	586.725854469564	1282.073989045284	127.636993204438	624.656096376248	1202.822556439843	50.270091132706	657.078959539342	1405.703826856697	85.868784809191	643.278753389384	723.938946501158	40.365580656799	410.541868550805	797.908074593911	36.232725778120	330.801459923396	882.406590104587	95.570609196843	359.178607617950	1009.821393178937	40.608500831115	329.220303268976	1149.858677710480	1116.306972515969	150.640513554979	1394.321743606826	1126.363439291155	222.187008906815	876.090287998141	1098.907241031993	727.124102920232	835.418521693916	842.468692692594	746.792366815924	
20	32.615785714286	846.527141058994	993.023035227430	453.008110433900	1046.353108590452	1427.966009217899	304.119218284595	1124.590109215085	1353.741994018310	476.303139843131	1014.990228653019	1420.210830364451	638.583790563614	1004.810695746647	1482.547077343978	458.088740735160	1061.001427949999	937.119313926003	597.038842711841	1075.629556982472	948.894534317844	321.508344645034	1143.689969111540	770.273748349830	571.769109405273	1107.299416405012	646.918148440802	645.024156735915	1197.033303911321	612.377754742786	565.649145366088	1235.477389880327	528.505777881822	586.659568243571	1065.907766299528	717.108145331844	353.772185130448	946.811806628305	628.380985767328	282.429035278970	996.278827195047	531.812818939071	352.236929011448	976.334383490886	467.264344935820	361.616144053071	940.232986473639	401.365242741010	351.728472283111	835.583066703015	302.900422021818	298.296565257171	861.739153397831	186.196500035761	372.694449142360	1216.391713466745	437.952640104967	596.958462148136	1160.157609379585	326.224901059461	662.137420788665	1226.834350676771	237.610109480618	610.961011124835	1129.695205907484	50.929144112014	587.155350916144	1293.808681125594	126.450113805844	624.538184358320	1216.864333450045	46.913538851185	657.578466906157	1418.916156043359	88.620505030808	643.408753695600	714.752751148427	40.394186477249	410.435126672254	788.742296303130	36.176471585362	330.725706339341	873.254770869364	95.431184245118	359.124445392975	1000.620274905700	40.479840424001	329.195328735467	1154.587937716718	1115.960091382139	152.496141441505	1397.981654414155	1135.258184847949	224.577930548475	868.414146328249	1101.310624919454	728.013937532571	820.011251163868	846.447734480865	746.478006305370	
21	32.627142857143	847.784526684124	990.031365416394	455.164123557694	1045.585358342010	1425.362475418951	305.619277922354	1124.718686485385	1351.498517867770	477.526348093998	1015.507796139775	1417.867900897703	640.097939635682	1004.617637381831	1479.862070267374	459.626291904851	1063.053935415929	933.987912088102	598.108402534224	1076.457475932653	946.641307033882	322.630733619622	1143.786187909931	765.271797801015	572.139052697574	1106.247560837735	642.514466281553	645.732676698092	1195.184537576812	607.473282340620	565.548017454854	1233.297056419211	524.863914149755	586.018920687280	1064.518436640401	714.418922452505	353.923324308965	943.966143792893	627.023451954533	283.047415785491	992.528150920768	529.821078942870	352.573745600117	971.825837834603	465.209638087784	361.949328277708	934.821941735948	399.784338135659	352.025391790650	828.908638128235	302.667104698823	298.479297476938	853.714575802670	185.563570808836	372.613644436720	1216.390457705383	434.390091547025	597.009265928624	1162.626362103023	321.131073895281	661.720925633702	1231.830700596160	234.264747687334	610.555710295724	1139.173178995925	45.927623291562	586.759046738017	1301.861531400209	124.668307375799	623.811194776465	1226.323796714972	44.274816797222	657.419902245453	1427.774203755387	89.321653506995	643.262691201982	705.565856203749	40.576705776903	410.255211143585	779.607752925725	36.173617966002	330.613805909234	864.160526698724	95.320055850267	359.035081631807	991.454046597088	40.312159212447	329.153078818127	1158.840541785574	1115.336191086589	154.493502291274	1400.959162557022	1143.043394311176	226.953964997763	861.588088396096	1103.639489891036	729.127586523423	806.451249857294	850.313909051920	746.203815395390	
